<svg xmlns="http://www.w3.org/2000/svg" xmlns:xlink="http://www.w3.org/1999/xlink" viewBox="0 0 127 136.07"><defs><style>.cls-1,.cls-4{fill:none;}.cls-2{fill:#fff;}.cls-3{clip-path:url(#clip-path);}.cls-4{stroke:#666;stroke-linecap:round;stroke-linejoin:round;stroke-width:6px;}</style><clipPath id="clip-path"><circle class="cls-1" cx="63.5" cy="72.57" r="63.5"/></clipPath></defs><title>logo-1</title><g id="图层_2" data-name="图层 2"><g id="图层_1-2" data-name="图层 1"><circle class="cls-2" cx="63.5" cy="72.57" r="63.5"/><g class="cls-3"><path class="cls-4" d="M63.5,44.21h0A29.4,29.4,0,0,1,92.81,73.53v11A29.4,29.4,0,0,1,63.5,113.87h0A29.4,29.4,0,0,1,34.19,84.56v-11"/><path class="cls-4" d="M34.19,64V60.3a15.44,15.44,0,0,1,15.4-15.4h1.62"/><path class="cls-4" d="M34.19,64.21V54.09A27,27,0,0,1,59.71,27.23a25,25,0,0,0,3.59-.38c3.3-.65,9.43-2.4,12.3-6.71,3.75-5.63,3-17.13,3-17.13"/><line class="cls-4" x1="63.5" y1="61.46" x2="63.5" y2="72.49"/></g></g></g></svg>